<mxfile host="app.diagrams.net" modified="2024-01-01T23:28:44.591Z" agent="Mozilla/5.0 (Macintosh; Intel Mac OS X 10_15_7) AppleWebKit/537.36 (KHTML, like Gecko) Chrome/120.0.0.0 Safari/537.36" version="22.1.16" etag="0L4xMqpjIEv4Nei2PySb" type="gitlab">
  <diagram name="Page-1" id="cTR3PE5d9raKeEVCgbi0">
    <mxGraphModel>
      <root>
        <mxCell id="0" />
        <mxCell id="1" parent="0" />
      </root>
    </mxGraphModel>
  </diagram>
</mxfile>
